<?xml version="1.0" encoding="UTF-8"?>
<svg xmlns="http://www.w3.org/2000/svg" version="1.1" viewBox="0 0 475.279 196.309">
  <defs>
    <style>
      .cls-1 {
        fill: #fffdf7;
      }
    </style>
  </defs>
  <!-- Generator: Adobe Illustrator 28.6.0, SVG Export Plug-In . SVG Version: 1.2.0 Build 709)  -->
  <g>
    <g id="BW_x5F_Wordmark_x5F_On_x5F_Dark_x5F_AW">
      <g>
        <path class="cls-1" d="M391.85,89.064c.381-.237.596-.62.596-1.068v-39.879l3.433-8.987c.151-.4.101-.811-.141-1.162-.242-.351-.61-.543-1.036-.543h-27.773c-.428,0-.794.192-1.036.543-.242.352-.292.764-.139,1.162l3.431,8.987v28.281c-11.452-.042-23.007-4.128-30.991-11.956-5.549-5.44-8.925-12.26-9.919-19.969-.873-6.76-.494-14.178,2.672-20.346,2.312-4.511,6.025-8.057,10.925-9.564,4.811-1.479,9.888-.7,14.319,1.571,5.793,2.968,10.17,8.21,13.185,13.88.184.347.486.569.871.644.387.074.749-.021,1.049-.273l18.081-15.219c.283-.239.436-.551.447-.921.012-.369-.12-.692-.387-.948-9.756-9.343-23.336-13.297-36.615-13.297-65.022.001-64.956,89.251,0,89.251,6.397,0,12.854-.919,18.908-2.906h.033c2.488-.818,4.914-1.819,7.251-3.019l6.054,3.019,5.56,2.775c.401.2.842.18,1.222-.056Z"/>
        <path class="cls-1" d="M377.266,167.865c-.306-.247-.67-.333-1.055-.249l-37.769,8.173v-60.71l3.423-8.539c.161-.399.116-.816-.126-1.172-.24-.357-.61-.552-1.04-.552h-27.773c-.432,0-.8.195-1.042.552-.242.356-.285.772-.126,1.172l3.425,8.539v73.258c0,.877.711,1.588,1.588,1.588h59.707c.692,0,1.258-.566,1.258-1.258v-19.824c0-.393-.163-.732-.469-.978Z"/>
        <path class="cls-1" d="M91.32,11.499v73.258c0,.877.711,1.588,1.588,1.588h20.083c.877,0,1.588-.711,1.588-1.588v-21.12h7.175l14.633,22.145c.233.352.627.564,1.049.564h26.006c.482,0,.896-.253,1.117-.683.221-.43.184-.915-.097-1.307l-7.084-9.851-8.991-14.188c5.892-2.472,11.045-6.358,14.672-11.691,3.427-5.042,5.231-11.112,5.057-17.211-.232-8.067-3.799-15.502-9.802-20.872-7.58-6.782-17.754-9.306-27.727-9.306h-41.525c-.43,0-.8.198-1.04.552-.244.356-.287.772-.128,1.172l3.425,8.539ZM114.58,15.39h10.327c25.829,0,25.826,34.093,0,34.093h-10.327V15.39Z"/>
        <path class="cls-1" d="M179.488,11.499v73.26c0,.877.711,1.588,1.588,1.588h20.083c.877,0,1.588-.711,1.588-1.588V11.499l3.423-8.539c.159-.398.116-.814-.124-1.172-.242-.355-.61-.552-1.042-.552h-27.775c-.428,0-.798.198-1.038.552-.244.356-.287.772-.128,1.172l3.425,8.539Z"/>
        <path class="cls-1" d="M217.604,11.499v73.258c0,.877.711,1.588,1.588,1.588h39.516c50.04,0,50.036-85.109,0-85.109h-43.363c-.43,0-.8.195-1.042.552-.24.356-.283.772-.124,1.172l3.425,8.539ZM240.864,15.39h12.163c25.816,0,25.814,56.803,0,56.803h-12.163V15.39Z"/>
        <path class="cls-1" d="M474.853,67.078c-.281-.247-.618-.352-.991-.304l-43.39,5.565v-26.365l31.878,4.461c.374.052.716-.049,1.001-.296.283-.247.432-.573.432-.949v-16.29c0-.691-.566-1.256-1.256-1.256h-32.055V15.236l40.84,5.019c.372.046.707-.058.987-.305s.424-.569.424-.942V2.492c0-.691-.566-1.256-1.256-1.256h-66.512c-.428,0-.798.195-1.04.552-.24.356-.285.772-.126,1.172l3.425,8.539v73.258c0,.877.711,1.588,1.588,1.588h65.223c.691,0,1.255-.565,1.255-1.255v-17.068c0-.374-.145-.696-.426-.943Z"/>
        <path class="cls-1" d="M430.208,104.815h-43.363c-.43,0-.8.195-1.042.552-.24.356-.283.772-.124,1.172l3.425,8.539v73.258c0,.877.711,1.588,1.588,1.588h39.516c50.04,0,50.036-85.109,0-85.109ZM424.526,175.773h-12.163v-56.803h12.163c25.816,0,25.814,56.803,0,56.803Z"/>
        <path class="cls-1" d="M3.518,11.499v73.258c0,.877.711,1.588,1.588,1.588h51.176c11.309,0,21.335-7.903,23.327-19.035,1.785-9.964-3.073-19.554-11.444-24.283,7.09-5.081,10.919-13.855,9.295-22.868-1.996-11.065-11.948-18.924-23.191-18.924H1.261c-.43,0-.8.195-1.042.552-.24.356-.284.772-.124,1.172l3.423,8.539ZM26.777,15.071h16.893c5.992,0,10.901,4.908,10.901,10.901s-4.909,10.9-10.901,10.9h-16.893V15.071ZM26.777,50.71h19.04c5.992,0,10.9,4.907,10.9,10.9s-4.908,10.9-10.9,10.9h-19.04v-21.8Z"/>
        <path class="cls-1" d="M141.53,117.175c7.298-3.834,15.121-6.303,23.508-5.833,6.978.299,14.111,2.229,19.926,6.184,5.13,3.488,8.949,8.646,10.065,14.817,1.311,7.259-.605,15.599-5.587,21.112-4.067,4.501-9.58,7.49-15.191,9.621-.492.187-.432.907.082,1.023,3.305.746,6.748.802,10.088.269,16.242-2.587,26.379-17.914,27.115-33.593.609-12.962-4.645-27.384-17.007-33.244-.536-.238-1.02.51-.569.893,3.812,3.667,6.67,8.018,8.683,12.742.238.56-.497,1.018-.888.552-5.194-6.174-12.487-10.564-19.999-12.943-23.492-7.981-49.686,2.327-64.053,21.955-.323.441-.914.583-1.397.327-.501-.265-.726-.869-.512-1.394,1.746-4.287,3.938-8.386,6.623-12.169.238-.336.48-.669.726-.998.519-.695.019-1.682-.849-1.682h-16.155c-.61,0-1.123.426-1.237,1.027l-11.921,63.736-19.4-55.302.676-1.691,2.426-6.046c.159-.399.114-.816-.126-1.172-.242-.357-.612-.552-1.042-.552h-28.422c-.422,0-.785.188-1.027.534-.243.344-.299.749-.156,1.147l11.065,30.93-9.681,32.556-19.536-55.686.687-1.71,2.424-6.046c.159-.399.116-.816-.126-1.172-.24-.357-.61-.552-1.04-.552H1.26c-.421,0-.784.188-1.026.534-.244.344-.299.749-.157,1.147l29.551,82.598c.179.5.653.834,1.183.834h24.377c.556-.001,1.048-.367,1.206-.9l8.641-29.061,10.422,29.128c.179.5.653.834,1.183.834h22.277c.536-.001.993-.32,1.179-.822l5.846-15.847c.617,4.675,1.645,9.288,3.186,13.737,1.123,3.131,2.468,6.281,4.315,9.075.347.525,1.151.102.934-.489-1.111-3.012-1.694-6.218-2.208-9.346-2.051-13.556-.363-28.022,4.615-40.551,4.705-12.074,13.296-22.459,24.745-28.51Z"/>
        <path class="cls-1" d="M298.752,152.205c3.429-5.042,5.233-11.112,5.059-17.211-.232-8.067-3.799-15.502-9.802-20.872-7.582-6.782-17.754-9.306-27.729-9.306h-37.027c-.114-.349-.211-.704-.331-1.052-1.123-3.131-2.468-6.281-4.316-9.075-.346-.525-1.15-.102-.932.489,1.109,3.012,1.693,6.218,2.206,9.346,2.052,13.555.364,28.022-4.614,40.55-4.705,12.074-13.296,22.46-24.745,28.51-7.298,3.834-15.121,6.302-23.508,5.833-6.474-.362-12.929-1.918-18.523-5.287-9.162-5.518-13.375-15.315-11.401-25.84,1.985-10.572,11.254-17.02,20.713-20.607.496-.188.449-.902-.069-1.019-.394-.089-.791-.169-1.188-.239-11.996-2.108-23.802,4.323-30.179,14.34-5.587,8.776-7.099,19.921-5.012,30.032,1.934,9.368,7.308,18.229,16.171,22.431.537.239,1.021-.508.57-.893-3.812-3.668-6.671-8.018-8.684-12.742-.238-.56.497-1.018.889-.552,5.194,6.175,12.487,10.564,19.998,12.942,23.8,8.086,50.372-2.599,64.61-22.727,3.159-4.452,5.642-9.341,7.509-14.462.156-.426.602-.668,1.042-.56.427.105.718.505.681.943-.415,5.018-1.316,10.035-2.761,14.893-.234.786-.363,1.599-.363,2.419v15.848c0,.877.711,1.588,1.588,1.588h20.083c.877,0,1.588-.711,1.588-1.588v-21.12h7.173l14.633,22.145c.233.352.627.564,1.048.564h26.007c.482,0,.898-.253,1.119-.683.219-.43.182-.915-.099-1.307l-7.084-9.851-8.989-14.188c5.89-2.472,11.042-6.358,14.67-11.691ZM260.599,153.063h-10.325v-34.093h10.325c25.831,0,25.826,34.093,0,34.093Z"/>
        <path class="cls-1" d="M180.897,145.952c.251-.079.408-.318.408-.579s-.169-.488-.408-.579l-5.327-1.817c-1.959-.67-3.419-2.328-3.825-4.361l-2.255-11.153c-.056-.284-.302-.488-.598-.488s-.545.204-.601.488l-2.252,11.153c-.406,2.033-1.867,3.691-3.824,4.361l-5.328,1.817c-.251.079-.407.318-.407.579s.168.489.407.579l5.328,1.817c1.958.67,3.418,2.328,3.824,4.361l2.252,11.153c.056.284.306.488.601.488s.542-.204.598-.488l2.255-11.153c.406-2.033,1.867-3.691,3.825-4.361l5.327-1.817Z"/>
      </g>
    </g>
  </g>
</svg>