<svg width="175" height="66" viewBox="0 0 175 66" fill="none" xmlns="http://www.w3.org/2000/svg">
<path d="M77.5679 15.16V13.816H79.1679C79.4559 13.816 79.6799 13.7627 79.8399 13.656C80.0105 13.56 80.1492 13.368 80.2559 13.08L80.9759 11.032L80.8159 12.312L77.1519 4.104H78.8319L80.4639 8.056C80.8799 9.02667 81.1519 9.68267 81.2799 10.024C81.3012 9.94934 81.3225 9.88 81.3439 9.816C81.3759 9.752 81.4025 9.68267 81.4239 9.608C81.4772 9.448 81.5412 9.256 81.6159 9.032C81.6905 8.808 81.7812 8.536 81.8879 8.216L83.2479 4.104H84.8319L81.7119 13.16C81.5412 13.672 81.3492 14.072 81.1359 14.36C80.9332 14.648 80.6772 14.8507 80.3679 14.968C80.0692 15.096 79.6852 15.16 79.2159 15.16H77.5679Z" fill="white"/>
<path d="M73.1033 12.2641C72.474 12.2641 71.946 12.1254 71.5193 11.8481C71.0926 11.5708 70.762 11.2348 70.5273 10.8401C70.5273 11.0214 70.5273 11.2081 70.5273 11.4001C70.5273 11.5814 70.5273 11.7948 70.5273 12.0401H69.0713V0.840088H70.5753V3.78409C70.5753 4.13609 70.5753 4.42942 70.5753 4.66409C70.5753 4.89876 70.5753 5.11209 70.5753 5.30409C70.7993 4.90942 71.1193 4.57342 71.5353 4.29609C71.9513 4.01875 72.474 3.88009 73.1033 3.88009C73.7326 3.88009 74.2926 4.05075 74.7833 4.39209C75.274 4.72275 75.658 5.20809 75.9353 5.84809C76.2126 6.47742 76.3513 7.21875 76.3513 8.07209C76.3513 8.91475 76.2126 9.65609 75.9353 10.2961C75.658 10.9254 75.274 11.4108 74.7833 11.7521C74.2926 12.0934 73.7326 12.2641 73.1033 12.2641ZM72.6713 10.9841C73.098 10.9841 73.466 10.8881 73.7753 10.6961C74.0953 10.4934 74.346 10.1788 74.5273 9.75209C74.7086 9.31476 74.7993 8.74942 74.7993 8.05609C74.7993 7.36276 74.7086 6.80276 74.5273 6.37609C74.3566 5.93876 74.1113 5.62942 73.7913 5.44809C73.4713 5.25609 73.098 5.16009 72.6713 5.16009C72.2446 5.16009 71.866 5.26676 71.5353 5.48009C71.2046 5.69342 70.9486 6.01876 70.7673 6.45609C70.586 6.89342 70.4953 7.42675 70.4953 8.05609C70.4953 8.68542 70.586 9.22409 70.7673 9.67209C70.9593 10.1094 71.2153 10.4401 71.5353 10.6641C71.866 10.8774 72.2446 10.9841 72.6713 10.9841Z" fill="white"/>
<path d="M58.3372 12.2641C57.7079 12.2641 57.1479 12.0988 56.6572 11.7681C56.1666 11.4268 55.7772 10.9414 55.4892 10.3121C55.2119 9.67209 55.0732 8.93076 55.0732 8.08809C55.0732 7.23476 55.2119 6.49342 55.4892 5.86409C55.7772 5.22409 56.1666 4.73342 56.6572 4.39209C57.1479 4.05075 57.7079 3.88009 58.3372 3.88009C58.9559 3.88009 59.4732 4.01875 59.8892 4.29609C60.3052 4.57342 60.6306 4.91475 60.8652 5.32009C60.8652 5.12809 60.8652 4.91476 60.8652 4.68009C60.8652 4.43476 60.8652 4.13609 60.8652 3.78409V0.840088H62.3692V12.0401H60.8972C60.8972 11.8054 60.8972 11.5974 60.8972 11.4161C60.8972 11.2241 60.8972 11.0321 60.8972 10.8401C60.6626 11.2348 60.3319 11.5708 59.9052 11.8481C59.4892 12.1254 58.9666 12.2641 58.3372 12.2641ZM58.7532 10.9841C59.1906 10.9841 59.5692 10.8774 59.8892 10.6641C60.2199 10.4508 60.4759 10.1254 60.6572 9.68809C60.8492 9.25075 60.9452 8.71742 60.9452 8.08809C60.9452 7.44809 60.8492 6.90942 60.6572 6.47209C60.4759 6.03475 60.2199 5.70942 59.8892 5.49609C59.5692 5.27209 59.1906 5.16009 58.7532 5.16009C58.3266 5.16009 57.9532 5.26142 57.6332 5.46409C57.3239 5.65609 57.0786 5.97076 56.8972 6.40809C56.7159 6.83476 56.6252 7.39476 56.6252 8.08809C56.6252 8.78142 56.7159 9.34675 56.8972 9.78409C57.0786 10.2108 57.3239 10.5201 57.6332 10.7121C57.9532 10.8934 58.3266 10.9841 58.7532 10.9841Z" fill="white"/>
<path d="M50.1279 12.2641C49.3919 12.2641 48.7465 12.1041 48.1919 11.7841C47.6479 11.4535 47.2212 10.9788 46.9119 10.3601C46.6132 9.73079 46.4639 8.97879 46.4639 8.10413C46.4639 7.26146 46.6185 6.52013 46.9279 5.88013C47.2372 5.24013 47.6639 4.74946 48.2079 4.40813C48.7625 4.05613 49.3812 3.88013 50.0639 3.88013C50.8425 3.88013 51.5092 4.08279 52.0639 4.48813C52.6292 4.88279 53.0399 5.43213 53.2959 6.13613C53.5625 6.82946 53.6479 7.60279 53.5519 8.45613H47.9679C47.9892 9.06413 48.1012 9.56013 48.3039 9.94413C48.5172 10.3175 48.7839 10.5895 49.1039 10.7601C49.4239 10.9201 49.7812 11.0001 50.1759 11.0001C50.7412 11.0001 51.1839 10.8455 51.5039 10.5361C51.8345 10.2268 52.0799 9.87479 52.2399 9.48013L53.6159 9.97613C53.4239 10.4775 53.1572 10.8988 52.8159 11.2401C52.4852 11.5815 52.0905 11.8375 51.6319 12.0081C51.1839 12.1788 50.6825 12.2641 50.1279 12.2641ZM52.0319 7.25613C52.0319 6.79746 51.9412 6.40813 51.7599 6.08813C51.5785 5.75746 51.3385 5.50679 51.0399 5.33613C50.7519 5.16546 50.4265 5.08013 50.0639 5.08013C49.5305 5.08013 49.0665 5.27746 48.6719 5.67213C48.2879 6.05613 48.0639 6.58413 47.9999 7.25613H52.0319Z" fill="white"/>
<path d="M40.7588 12.0402V4.10419H42.2308C42.2308 4.28552 42.2308 4.45619 42.2308 4.61619C42.2308 4.76552 42.2308 4.90419 42.2308 5.03219C42.2308 5.16019 42.2308 5.28285 42.2308 5.40019C42.2308 5.51752 42.2308 5.64552 42.2308 5.78419C42.4228 5.34685 42.7375 4.94152 43.1748 4.56819C43.6121 4.18419 44.1775 3.99219 44.8708 3.99219C45.1695 3.99219 45.4148 4.01885 45.6068 4.07219V5.60819C45.2655 5.56552 44.9828 5.54419 44.7588 5.54419C43.8948 5.54419 43.2601 5.79485 42.8548 6.29619C42.4601 6.78685 42.2628 7.51219 42.2628 8.47219V12.0402H40.7588Z" fill="white"/>
<path d="M35.2216 12.2641C34.4856 12.2641 33.8403 12.1041 33.2856 11.7841C32.7416 11.4535 32.3149 10.9788 32.0056 10.3601C31.7069 9.73079 31.5576 8.97879 31.5576 8.10413C31.5576 7.26146 31.7123 6.52013 32.0216 5.88013C32.3309 5.24013 32.7576 4.74946 33.3016 4.40813C33.8563 4.05613 34.4749 3.88013 35.1576 3.88013C35.9363 3.88013 36.6029 4.08279 37.1576 4.48813C37.7229 4.88279 38.1336 5.43213 38.3896 6.13613C38.6563 6.82946 38.7416 7.60279 38.6456 8.45613H33.0616C33.0829 9.06413 33.195 9.56013 33.3976 9.94413C33.611 10.3175 33.8776 10.5895 34.1976 10.7601C34.5176 10.9201 34.8749 11.0001 35.2696 11.0001C35.8349 11.0001 36.2776 10.8455 36.5976 10.5361C36.9283 10.2268 37.1736 9.87479 37.3336 9.48013L38.7096 9.97613C38.5176 10.4775 38.2509 10.8988 37.9096 11.2401C37.5789 11.5815 37.1843 11.8375 36.7256 12.0081C36.2776 12.1788 35.7763 12.2641 35.2216 12.2641ZM37.1256 7.25613C37.1256 6.79746 37.0349 6.40813 36.8536 6.08813C36.6723 5.75746 36.4323 5.50679 36.1336 5.33613C35.8456 5.16546 35.5203 5.08013 35.1576 5.08013C34.6243 5.08013 34.1603 5.27746 33.7656 5.67213C33.3816 6.05613 33.1576 6.58413 33.0936 7.25613H37.1256Z" fill="white"/>
<path d="M20.4851 12.04L17.8931 4.104H19.4611L20.5811 7.8C20.6877 8.152 20.7837 8.46667 20.8691 8.744C20.9544 9.02134 21.0291 9.26667 21.0931 9.48C21.1571 9.69334 21.2104 9.88 21.2531 10.04C21.3064 10.1893 21.3491 10.3227 21.3811 10.44C21.4557 10.152 21.7117 9.29867 22.1491 7.88L23.3011 4.104H25.0611L26.3091 8.232C26.3944 8.54134 26.4744 8.81867 26.5491 9.064C26.6237 9.30934 26.6931 9.53334 26.7571 9.736C26.7997 9.87467 26.8371 10.0027 26.8691 10.12C26.9117 10.2373 26.9437 10.3387 26.9651 10.424C27.1037 10.0293 27.3811 9.13867 27.7971 7.752L28.9331 4.104H30.5171L27.8451 12.04H26.0691L24.9011 8.216C24.7731 7.78934 24.6611 7.416 24.5651 7.096C24.4691 6.776 24.3837 6.504 24.3091 6.28C24.2771 6.17334 24.2451 6.07734 24.2131 5.992C24.1917 5.90667 24.1704 5.82667 24.1491 5.752C24.1917 5.61334 23.9357 6.42934 23.3811 8.2L22.1811 12.04H20.4851Z" fill="white"/>
<path d="M13.0826 12.2641C12.3786 12.2641 11.7386 12.0828 11.1626 11.7201C10.5866 11.3575 10.1333 10.8561 9.80264 10.2161C9.47197 9.57613 9.30664 8.86679 9.30664 8.08813C9.30664 7.28813 9.46664 6.56813 9.78664 5.92813C10.1173 5.28813 10.5706 4.78679 11.1466 4.42413C11.7226 4.06146 12.368 3.88013 13.0826 3.88013C13.7973 3.88013 14.4426 4.06146 15.0186 4.42413C15.5946 4.78679 16.0426 5.28813 16.3626 5.92813C16.6826 6.56813 16.8426 7.28813 16.8426 8.08813C16.8426 8.87746 16.6773 9.59213 16.3466 10.2321C16.016 10.8615 15.5626 11.3575 14.9866 11.7201C14.4213 12.0828 13.7866 12.2641 13.0826 12.2641ZM13.0826 10.9681C13.52 10.9681 13.904 10.8615 14.2346 10.6481C14.5653 10.4348 14.8213 10.1148 15.0026 9.68813C15.184 9.26146 15.2746 8.73346 15.2746 8.10413C15.2746 7.46413 15.184 6.92546 15.0026 6.48813C14.8213 6.05079 14.5653 5.72546 14.2346 5.51213C13.904 5.28813 13.52 5.17613 13.0826 5.17613C12.6346 5.17613 12.2453 5.28813 11.9146 5.51213C11.584 5.72546 11.328 6.05079 11.1466 6.48813C10.9653 6.92546 10.8746 7.46413 10.8746 8.10413C10.8746 8.73346 10.9653 9.26146 11.1466 9.68813C11.328 10.1148 11.584 10.4348 11.9146 10.6481C12.2453 10.8615 12.6346 10.9681 13.0826 10.9681Z" fill="white"/>
<path d="M0 12.0401V0.840088H4.544C5.32267 0.840088 5.98933 0.984088 6.544 1.27209C7.10933 1.54942 7.536 1.94942 7.824 2.47209C8.12267 2.98409 8.272 3.57609 8.272 4.24809C8.272 4.93076 8.12267 5.52809 7.824 6.04009C7.52533 6.55209 7.09333 6.95209 6.528 7.24009C5.97333 7.52809 5.30667 7.67209 4.528 7.67209H1.6V12.0401H0ZM4.24 6.28009C4.752 6.28009 5.184 6.19476 5.536 6.02409C5.888 5.84276 6.14933 5.60276 6.32 5.30409C6.50133 4.99475 6.592 4.64276 6.592 4.24809C6.592 3.85342 6.50667 3.51209 6.336 3.22409C6.16533 2.93609 5.904 2.71209 5.552 2.55209C5.2 2.39209 4.76267 2.31209 4.24 2.31209H1.6V6.28009H4.24Z" fill="white"/>
<path d="M65.1497 42.0122L72.3449 26.9434C72.4193 26.784 72.5681 26.699 72.7381 26.699H82.6753C82.8241 26.699 82.9517 26.7627 83.0367 26.8903C83.1217 27.0178 83.1323 27.1559 83.0792 27.2941L81.8889 30.2696V52.8197L83.0792 55.7953C83.1323 55.9334 83.1217 56.0822 83.0367 56.1991C82.9517 56.316 82.8241 56.3904 82.6753 56.3904H72.9826C72.8338 56.3904 72.7062 56.3266 72.6212 56.1991C72.5362 56.0716 72.5256 55.9334 72.5787 55.7953L73.769 52.8197V35.1154L63.6087 56.6773C63.5343 56.8367 63.3855 56.9323 63.2048 56.9323C63.0241 56.9323 62.8753 56.8261 62.8116 56.6667L53.9903 36.0718V51.6295L55.6695 55.8059C55.7227 55.944 55.712 56.0928 55.627 56.2097C55.542 56.3266 55.4145 56.401 55.2657 56.401H47.9005C47.7517 56.401 47.6241 56.3372 47.5391 56.2097C47.4541 56.0822 47.4434 55.944 47.4966 55.8059L49.1758 51.6295V30.2802L47.9855 27.3047C47.9323 27.1666 47.943 27.0178 48.028 26.9009C48.113 26.7734 48.2405 26.7096 48.3893 26.7096H58.369C58.5497 26.7096 58.6985 26.8159 58.7729 26.9753L65.171 42.0335L65.1497 42.0122Z" fill="white"/>
<path d="M109.905 55.8057C109.958 55.9439 109.947 56.082 109.862 56.2096C109.777 56.3264 109.649 56.4008 109.511 56.4008H101.041C100.807 56.4008 100.605 56.2096 100.605 55.9651V54.6474C98.5219 56.2202 96.0881 56.9003 93.4311 56.9003C90.5084 56.9003 87.5432 55.7951 86.3316 52.9259C85.1306 50.0885 86.2784 46.943 88.2978 44.807C91.3693 41.5551 96.1625 40.4712 100.477 40.4712H100.584C100.541 39.6848 100.318 38.8241 99.6378 38.399C96.832 36.6455 92.3789 39.2066 90.0301 40.875C89.9238 40.9494 89.7963 40.9707 89.6688 40.9388C89.5412 40.9069 89.4456 40.8219 89.3925 40.705L87.5219 36.8156C87.4688 36.7093 87.4688 36.5924 87.5113 36.4755C87.5538 36.3586 87.6282 36.2842 87.7451 36.2311C93.9944 33.5425 108.693 32.8305 108.693 42.6178V52.809L109.883 55.7951L109.905 55.8057ZM100.605 44.1693C98.8833 44.3394 97.3422 45.1258 96.1837 46.4541C95.2591 47.5274 94.5364 49.0683 94.6108 50.5136C94.6427 51.1087 94.8446 51.6719 95.3441 52.0226C96.2794 52.6708 97.661 52.2776 98.5325 51.7144C99.9035 50.8217 100.605 49.3234 100.605 47.6975V44.1693Z" fill="white"/>
<path d="M133.371 65.0193C133.371 65.0193 133.339 64.9768 133.329 64.9556C133.318 64.9237 133.297 64.8918 133.297 64.8599C133.286 64.7855 133.297 64.7218 133.318 64.6474C133.318 64.6474 133.339 64.6049 133.35 64.5942C134.36 63.1384 133.169 61.8206 130.959 62.5008C128.344 63.2978 122.467 64.7962 119.788 64.828C116.664 64.8705 113.55 63.8929 112.126 60.928C110.372 57.2723 113.072 52.6284 116.037 51.3745C108.714 46.2629 111.605 34.6584 124.348 34.6584C126.431 34.6584 128.535 34.9666 130.47 35.753C131.341 33.7552 132.659 31.9698 134.572 30.8647C134.795 30.7371 135.072 30.8221 135.178 31.0559L137.601 36.2737C137.729 36.5394 137.548 36.8476 137.261 36.8794C136.103 37.007 134.859 37.3045 133.817 37.8465C137.027 40.822 137.622 45.4553 135.103 49.0259C133.371 51.4807 130.672 52.7878 127.813 53.3723C125.124 53.9249 122.594 53.4467 119.82 54.0737C117.227 54.6581 117.663 58.1756 120.66 57.5699C123.136 57.0704 127.664 55.7846 130.661 55.2001C137.144 53.9355 139.78 60.1416 137.293 64.8493C137.102 65.2106 136.878 65.1575 136.358 65.1575H133.658C133.552 65.1575 133.456 65.115 133.392 65.0406L133.371 65.0193ZM125.9 39.2917C125.071 38.4947 123.902 37.8146 122.711 37.9953C121.393 38.1972 120.66 39.3768 120.352 40.5882C120.033 41.8741 120.139 43.2981 120.479 44.5626C120.883 46.0929 121.691 47.6232 122.839 48.7177C125.049 50.8325 127.632 50.4287 128.387 47.4213C128.716 46.1354 128.599 44.7114 128.259 43.4468C127.855 41.9166 127.047 40.3863 125.9 39.2917Z" fill="white"/>
<path d="M150.333 55.8057C150.386 55.9439 150.376 56.082 150.291 56.2096C150.206 56.3265 150.078 56.4008 149.94 56.4008H140.247C140.099 56.4008 139.971 56.3371 139.886 56.2096C139.801 56.082 139.79 55.9439 139.843 55.8057L141.034 52.8196V40.6412L139.599 38.2608C139.525 38.1439 139.514 38.0164 139.567 37.8889C139.62 37.7614 139.705 37.6657 139.843 37.6339L141.342 37.1556H141.363L148.601 35.1791C148.739 35.1472 148.867 35.1684 148.973 35.2534C149.079 35.3385 149.143 35.4553 149.143 35.5935V52.8302L150.333 55.8164V55.8057ZM144.913 25.1792H144.998C147.379 25.1792 149.313 27.1133 149.313 29.4937C149.313 31.8741 147.379 33.8294 144.987 33.8082H144.902C142.522 33.8082 140.587 31.8741 140.587 29.4937C140.587 27.1133 142.522 25.1792 144.913 25.1792Z" fill="white"/>
<path d="M173.959 38.4521L168.943 42.7453C168.837 42.841 168.698 42.8729 168.56 42.841C168.422 42.8091 168.316 42.7135 168.263 42.5859C167.955 41.8208 167.583 41.0769 167.136 40.3862C166.318 39.1003 164.67 37.2406 162.927 37.6551C161.78 37.9208 161.099 39.2066 160.759 40.2268C160.228 41.8314 160.175 43.723 160.44 45.3808C161.078 49.4828 163.576 52.8621 167.88 53.4784C168.369 53.5528 168.858 53.5847 169.347 53.5847C170.994 53.5847 172.663 53.1915 174.108 52.3839C174.289 52.2776 174.512 52.3201 174.65 52.4795C174.788 52.6389 174.778 52.8727 174.65 53.0321C172.227 55.9014 168.465 56.9322 164.819 56.9322C158.017 56.9322 152.533 52.9471 152.533 45.774C152.533 38.6009 158.049 34.6689 164.819 34.6689C168.114 34.6689 171.547 35.4766 173.97 37.8357C174.055 37.9208 174.108 38.027 174.097 38.1545C174.097 38.2821 174.044 38.3883 173.949 38.4627L173.959 38.4521Z" fill="white"/>
<path d="M36.8793 41.4383L31.3846 39.5786C29.3653 38.8985 27.8667 37.1876 27.4416 35.1047L25.1247 23.6596C25.0609 23.3727 24.8059 23.1602 24.5083 23.1602C24.2107 23.1602 23.9556 23.3727 23.8919 23.6596L21.575 35.1047C21.1498 37.1876 19.6513 38.8985 17.632 39.5786L12.1373 41.4383C11.8822 41.5233 11.7122 41.7677 11.7122 42.0334C11.7122 42.2991 11.8822 42.5435 12.1373 42.6285L17.632 44.4882C19.6513 45.1683 21.1498 46.8793 21.575 48.9621L23.8919 60.3966C23.9556 60.6835 24.2107 60.8961 24.5083 60.8961C24.8059 60.8961 25.0609 60.6835 25.1247 60.3966L27.4416 48.9621C27.8667 46.8793 29.3653 45.1683 31.3846 44.4882L36.8793 42.6285C37.1344 42.5435 37.3044 42.2991 37.3044 42.0334C37.3044 41.7677 37.1344 41.5233 36.8793 41.4383Z" fill="white"/>
<path d="M7.3546 30.9494L9.28891 31.6083C10.001 31.8527 10.5324 32.4478 10.6812 33.1917L11.4995 37.2299C11.5208 37.3362 11.6058 37.4105 11.7121 37.4105C11.8184 37.4105 11.9034 37.3362 11.9246 37.2299L12.743 33.1917C12.8918 32.4584 13.4232 31.8527 14.1353 31.6083L16.0696 30.9494C16.1546 30.9175 16.2184 30.8325 16.2184 30.7369C16.2184 30.6412 16.1546 30.5562 16.0696 30.5243L14.1353 29.8655C13.4232 29.6211 12.8918 29.026 12.743 28.2821L11.9246 24.2439C11.9034 24.1376 11.8184 24.0632 11.7121 24.0632C11.6058 24.0632 11.5208 24.1376 11.4995 24.2439L10.6812 28.2821C10.5324 29.0153 10.001 29.6211 9.28891 29.8655L7.3546 30.5243C7.26958 30.5562 7.20581 30.6412 7.20581 30.7369C7.20581 30.8325 7.26958 30.9175 7.3546 30.9494Z" fill="white"/>
<path d="M11.8715 50.79L9.27828 49.908C8.32176 49.5892 7.60968 48.7815 7.41837 47.7932L6.32367 42.3842C6.29179 42.246 6.17489 42.1504 6.03673 42.1504C5.89856 42.1504 5.77102 42.246 5.74977 42.3842L4.65508 47.7932C4.45315 48.7815 3.74107 49.5892 2.79518 49.908L0.201935 50.79C0.0850268 50.8325 0 50.9388 0 51.0663C0 51.1938 0.0850268 51.3107 0.201935 51.3426L2.79518 52.2246C3.7517 52.5434 4.46378 53.3511 4.65508 54.3394L5.74977 59.7484C5.78165 59.8866 5.89856 59.9822 6.03673 59.9822C6.17489 59.9822 6.30242 59.8866 6.32367 59.7484L7.41837 54.3394C7.62031 53.3511 8.33238 52.5434 9.27828 52.2246L11.8715 51.3426C11.9884 51.3001 12.0734 51.1938 12.0734 51.0663C12.0734 50.9388 11.9884 50.8219 11.8715 50.79Z" fill="white"/>
</svg>
