<svg width="30" height="36" viewBox="0 0 30 36" fill="none" xmlns="http://www.w3.org/2000/svg">
<path d="M0 11.2497V24.6764C0 26.8993 1.21337 28.9495 3.17452 30.0541L12.2184 35.1624C13.6716 35.9839 15.4564 35.9839 16.9096 35.1624L25.9535 30.0541C27.9146 28.9426 29.128 26.8924 29.128 24.6764V11.2497C29.128 9.02681 27.9146 6.97655 25.9535 5.87203L16.9096 0.756738C15.4564 -0.0647461 13.6716 -0.0647461 12.2184 0.756738L3.17452 5.86513C1.21337 6.97655 0 9.02681 0 11.2497Z" fill="#DC2626"/>
<path d="M25.6064 17.6085L22.2837 16.504C21.0633 16.0967 20.1533 15.0888 19.8993 13.8532L18.4955 7.07418C18.4602 6.9016 18.305 6.77734 18.1216 6.77734C17.9382 6.77734 17.783 6.9016 17.7477 7.07418L16.3439 13.8532C16.0899 15.0888 15.1799 16.0967 13.9594 16.504L10.6368 17.6085C10.4816 17.6568 10.3828 17.8018 10.3828 17.9606C10.3828 18.1194 10.4886 18.2574 10.6368 18.3126L13.9594 19.4172C15.1799 19.8245 16.0899 20.8323 16.3439 22.068L17.7477 28.847C17.783 29.0196 17.9382 29.1438 18.1216 29.1438C18.305 29.1438 18.4602 29.0196 18.4955 28.847L19.8993 22.068C20.1533 20.8323 21.0633 19.8245 22.2837 19.4172L25.6064 18.3126C25.7616 18.2643 25.8604 18.1194 25.8604 17.9606C25.8604 17.8018 25.7546 17.6637 25.6064 17.6085Z" fill="#FFFDF7"/>
<path d="M7.73038 11.3893L8.90143 11.7759C9.33175 11.9209 9.65626 12.2729 9.74091 12.7147L10.2347 15.1102C10.2488 15.1723 10.3053 15.2137 10.3688 15.2137C10.4323 15.2137 10.4887 15.1723 10.5028 15.1102L10.9966 12.7147C11.0883 12.2798 11.4058 11.9209 11.8432 11.7759L13.0142 11.3893C13.0706 11.3686 13.1059 11.3203 13.1059 11.2651C13.1059 11.2098 13.0706 11.1615 13.0142 11.1408L11.8432 10.7542C11.4128 10.6092 11.0883 10.2572 10.9966 9.81538L10.5028 7.41995C10.4887 7.35783 10.4323 7.31641 10.3688 7.31641C10.3053 7.31641 10.2488 7.35783 10.2347 7.41995L9.74091 9.81538C9.6492 10.2503 9.33175 10.6092 8.90143 10.7542L7.73038 11.1408C7.67394 11.1615 7.63867 11.2098 7.63867 11.2651C7.63867 11.3203 7.67394 11.3686 7.73038 11.3893Z" fill="#FFFDF7"/>
<path d="M10.4663 23.1515L8.89316 22.6338C8.31469 22.4405 7.88437 21.9641 7.76444 21.3774L7.10132 18.1674C7.08721 18.0845 7.00961 18.0293 6.92496 18.0293C6.8403 18.0293 6.7627 18.0845 6.74859 18.1674L6.08547 21.3774C5.96554 21.9641 5.53522 22.4405 4.95675 22.6338L3.3836 23.1515C3.31305 23.1722 3.26367 23.2412 3.26367 23.3172C3.26367 23.3931 3.31305 23.4621 3.3836 23.4828L4.95675 24.0006C5.53522 24.1939 5.96554 24.6702 6.08547 25.257L6.74859 28.467C6.7627 28.5498 6.8403 28.605 6.92496 28.605C7.00961 28.605 7.08015 28.5429 7.10132 28.467L7.76444 25.257C7.88437 24.6702 8.31469 24.1939 8.89316 24.0006L10.4663 23.4828C10.5369 23.4621 10.5862 23.3931 10.5862 23.3172C10.5862 23.2412 10.5369 23.1722 10.4663 23.1515Z" fill="#FFFDF7"/>
</svg>
