<svg width="33" height="42" viewBox="0 0 33 42" fill="none" xmlns="http://www.w3.org/2000/svg">
<path d="M0.223633 13.4247V28.5833C0.223633 31.0929 1.55664 33.4076 3.71116 34.6546L13.6467 40.4219C15.2432 41.3493 17.204 41.3493 18.8005 40.4219L28.7361 34.6546C30.8906 33.3998 32.2236 31.0851 32.2236 28.5833V13.4247C32.2236 10.9152 30.8906 8.60046 28.7361 7.35348L18.8005 1.57839C17.204 0.650952 15.2432 0.650952 13.6467 1.57839L3.71116 7.34568C1.55664 8.60046 0.223633 10.9152 0.223633 13.4247Z" fill="#DC2626"/>
<path d="M28.3555 20.6022L24.7052 19.3553C23.3644 18.8954 22.3647 17.7576 22.0857 16.3625L20.5434 8.70915C20.5047 8.51431 20.3342 8.37402 20.1327 8.37402C19.9312 8.37402 19.7607 8.51431 19.7219 8.70915L18.1797 16.3625C17.9007 17.7576 16.9009 18.8954 15.5601 19.3553L11.9099 20.6022C11.7394 20.6568 11.6309 20.8205 11.6309 20.9997C11.6309 21.179 11.7471 21.3348 11.9099 21.3972L15.5601 22.6442C16.9009 23.104 17.9007 24.2419 18.1797 25.6369L19.7219 33.2903C19.7607 33.4851 19.9312 33.6254 20.1327 33.6254C20.3342 33.6254 20.5047 33.4851 20.5434 33.2903L22.0857 25.6369C22.3647 24.2419 23.3644 23.104 24.7052 22.6442L28.3555 21.3972C28.526 21.3426 28.6345 21.179 28.6345 20.9997C28.6345 20.8205 28.5182 20.6646 28.3555 20.6022Z" fill="#FFFDF7"/>
<path d="M8.71696 13.5807L10.0035 14.0171C10.4762 14.1808 10.8327 14.5782 10.9257 15.077L11.4682 17.7814C11.4837 17.8516 11.5457 17.8983 11.6155 17.8983C11.6852 17.8983 11.7472 17.8516 11.7627 17.7814L12.3052 15.077C12.406 14.586 12.7547 14.1808 13.2352 14.0171L14.5218 13.5807C14.5838 13.5573 14.6225 13.5027 14.6225 13.4404C14.6225 13.378 14.5838 13.3235 14.5218 13.3001L13.2352 12.8636C12.7625 12.7 12.406 12.3025 12.3052 11.8037L11.7627 9.09933C11.7472 9.02918 11.6852 8.98242 11.6155 8.98242C11.5457 8.98242 11.4837 9.02918 11.4682 9.09933L10.9257 11.8037C10.825 12.2947 10.4762 12.7 10.0035 12.8636L8.71696 13.3001C8.65496 13.3235 8.61621 13.378 8.61621 13.4404C8.61621 13.5027 8.65496 13.5573 8.71696 13.5807" fill="#FFFDF7"/>
<path d="M11.7243 26.861L9.99607 26.2765C9.36056 26.0583 8.88781 25.5205 8.75606 24.858L8.02755 21.234C8.01205 21.1405 7.9268 21.0781 7.8338 21.0781C7.7408 21.0781 7.65555 21.1405 7.64005 21.234L6.91155 24.858C6.7798 25.5205 6.30704 26.0583 5.67154 26.2765L3.94327 26.861C3.86577 26.8844 3.81152 26.9623 3.81152 27.048C3.81152 27.1338 3.86577 27.2117 3.94327 27.2351L5.67154 27.8196C6.30704 28.0378 6.7798 28.5756 6.91155 29.2381L7.64005 32.8621C7.65555 32.9556 7.7408 33.018 7.8338 33.018C7.9268 33.018 8.0043 32.9478 8.02755 32.8621L8.75606 29.2381C8.88781 28.5756 9.36056 28.0378 9.99607 27.8196L11.7243 27.2351C11.8018 27.2117 11.8561 27.1338 11.8561 27.048C11.8561 26.9623 11.8018 26.8844 11.7243 26.861Z" fill="#FFFDF7"/>
</svg>
